<svg width="253" height="179" viewBox="0 0 253 179" fill="none" xmlns="http://www.w3.org/2000/svg">
<mask id="mask0_1752_70" style="mask-type:luminance" maskUnits="userSpaceOnUse" x="27" y="0" width="200" height="110">
<path d="M27 0.630249H227V109.63H27V0.630249Z" fill="white"/>
</mask>
<g mask="url(#mask0_1752_70)">
<path d="M78.849 92.1615L73.6667 80.6667C69.8385 72.1771 73.6198 62.1928 82.1094 58.3646L127.479 37.9115C135.964 34.0834 145.953 37.8646 149.781 46.3542L166.021 82.3907C167.276 85.1667 167.708 88.099 167.432 90.9271C154.818 89.1198 141.203 88.1303 127 88.1303C109.844 88.1303 93.5521 89.5678 78.849 92.1615ZM152.302 38.6667L162.167 34.224C162.25 33.3803 162.755 32.6042 163.583 32.2292C164.813 31.6771 166.266 32.224 166.818 33.4532C167.375 34.6875 166.823 36.1355 165.594 36.6875C164.766 37.0625 163.849 36.9271 163.161 36.4323L153.302 40.8803C152.688 41.1511 151.969 40.8855 151.693 40.2709C151.422 39.6615 151.693 38.9428 152.302 38.6667ZM169.438 39.2605C169.99 40.4948 169.443 41.9428 168.214 42.4948C167.385 42.8698 166.469 42.7344 165.781 42.2396L155.917 46.6875C155.307 46.9584 154.589 46.6875 154.313 46.0782C154.036 45.4688 154.307 44.75 154.922 44.474L164.781 40.0261C164.865 39.1875 165.375 38.4115 166.198 38.0365C167.432 37.4844 168.88 38.0313 169.438 39.2605ZM172.052 45.0678C172.609 46.2969 172.063 47.75 170.828 48.3021C170 48.6771 169.083 48.5417 168.396 48.0469L158.536 52.4948C157.927 52.7657 157.208 52.4948 156.932 51.8855C156.656 51.2761 156.927 50.5573 157.536 50.2813L167.401 45.8334C167.484 44.9948 167.995 44.2188 168.818 43.8438C170.052 43.2865 171.5 43.8386 172.052 45.0678ZM174.672 50.875C175.229 52.1042 174.677 53.5573 173.448 54.1094C172.62 54.4844 171.703 54.349 171.016 53.8542L161.151 58.2969C160.542 58.5782 159.823 58.3021 159.547 57.6928C159.271 57.0834 159.547 56.3646 160.156 56.0886L170.021 51.6407C170.099 50.7969 170.609 50.0261 171.438 49.6511C172.667 49.099 174.115 49.6459 174.672 50.875ZM177.292 56.6823C177.844 57.9115 177.297 59.3594 176.063 59.9167C175.24 60.2917 174.318 60.1563 173.63 59.6615L163.771 64.1042C163.161 64.3855 162.443 64.1094 162.167 63.5C161.891 62.8907 162.167 62.1719 162.776 61.8959L172.635 57.448C172.719 56.6042 173.229 55.8334 174.057 55.4584C175.286 54.9063 176.734 55.4532 177.292 56.6823ZM179.906 62.4896C180.464 63.7188 179.911 65.1719 178.682 65.724C177.854 66.099 176.938 65.9636 176.25 65.4688L166.391 69.9115C165.776 70.1875 165.057 69.9167 164.786 69.3073C164.51 68.698 164.781 67.9792 165.391 67.7032L175.255 63.2553C175.339 62.4115 175.844 61.6355 176.672 61.2657C177.906 60.7084 179.354 61.2605 179.906 62.4896ZM182.526 68.2969C183.078 69.5313 182.531 70.9792 181.302 71.5313C180.474 71.9063 179.557 71.7709 178.87 71.2761L169.005 75.7188C168.396 75.9948 167.677 75.724 167.401 75.1146C167.125 74.5053 167.401 73.7813 168.01 73.5105L177.87 69.0625C177.958 68.2188 178.464 67.448 179.292 67.073C180.521 66.5157 181.969 67.0678 182.526 68.2969ZM186.682 77.1511C187.474 78.9115 186.693 80.974 184.938 81.7657C183.177 82.5573 181.115 81.7761 180.323 80.0209C179.531 78.2657 180.313 76.198 182.073 75.4063C183.828 74.6146 185.891 75.3959 186.682 77.1511ZM173.031 79.4792C174.786 78.6875 176.854 79.474 177.646 81.2292C178.438 82.9844 177.651 85.0469 175.896 85.8386C174.141 86.6355 172.073 85.849 171.281 84.0938C170.495 82.3386 171.271 80.2709 173.031 79.4792ZM192.75 96.0053C195.474 93.9792 196.526 90.2657 195.073 87.0417L165.526 21.5053C163.849 17.7813 159.474 16.125 155.75 17.8073L114.568 36.3698C112.563 34.349 109.964 33.0365 107.188 32.6094L112.693 2.349C112.828 1.60942 112.333 0.901087 111.594 0.765671C110.854 0.630254 110.141 1.11984 110.005 1.85942L104.438 32.4896C102.875 32.5782 101.297 32.9375 99.7865 33.6198C99.3229 33.8282 98.8802 34.0678 98.4531 34.3178L61.7448 3.474C61.1667 2.98963 60.3073 3.06255 59.8229 3.64067C59.3385 4.2188 59.4115 5.07817 59.9896 5.56255L96.2135 36.0053C93.3229 38.7032 91.7917 42.5834 92.0469 46.5209L62.6302 59.7813C58.9063 61.4636 57.25 65.8386 58.9271 69.5625L69.9063 93.9167C52.4167 97.7344 37.6406 103.24 27.0312 109.88C52.8437 101.115 88.1094 95.7136 127 95.7136C165.896 95.7136 201.161 101.115 226.969 109.88C218.161 104.365 206.474 99.6355 192.75 96.0053Z" fill="#FB6908"/>
</g>
<path d="M2.00307 165.855V157.417H20.0239C20.826 157.417 21.5499 157.219 22.1906 156.813C22.826 156.412 23.3364 155.891 23.7114 155.25C24.0968 154.615 24.2947 153.912 24.2947 153.146C24.2947 152.344 24.0968 151.62 23.7114 150.98C23.3364 150.328 22.826 149.808 22.1906 149.417C21.5499 149.016 20.826 148.813 20.0239 148.813H13.5031C11.0552 148.813 8.82598 148.334 6.81557 147.375C4.81557 146.407 3.21661 144.99 2.0239 143.125C0.841608 141.25 0.253067 139.011 0.253067 136.396C0.253067 133.828 0.815567 131.599 1.94057 129.709C3.06557 127.823 4.59161 126.349 6.5239 125.292C8.45098 124.224 10.576 123.688 12.8989 123.688H31.5239V132.105H14.0447C13.3208 132.105 12.6593 132.292 12.0656 132.667C11.4666 133.032 11.0031 133.511 10.6697 134.105C10.3468 134.703 10.1906 135.365 10.1906 136.084C10.1906 136.808 10.3468 137.459 10.6697 138.042C11.0031 138.625 11.4666 139.099 12.0656 139.459C12.6593 139.823 13.3208 140 14.0447 140H20.8572C23.5499 140 25.8885 140.516 27.8781 141.542C29.8624 142.573 31.4041 144 32.5031 145.834C33.6124 147.657 34.1697 149.787 34.1697 152.23C34.1697 155.136 33.5916 157.599 32.4406 159.625C31.2999 161.657 29.7635 163.203 27.8364 164.271C25.9197 165.328 23.7947 165.855 21.4614 165.855H2.00307Z" fill="white"/>
<path d="M51.5194 165.854C48.6704 165.854 46.4412 165.042 44.8319 163.417C43.2329 161.792 42.436 159.594 42.436 156.813V127.417H51.8319V156.271C51.8319 156.761 51.9985 157.177 52.3319 157.521C52.6756 157.854 53.0923 158.021 53.5819 158.021H60.3319V165.854H51.5194ZM37.3735 142.604V134.938H60.3319V142.604H37.3735Z" fill="white"/>
<path d="M66.4069 165.855V144.042C66.4069 141.24 67.2089 139.032 68.8235 137.417C70.4329 135.808 72.6621 135 75.511 135H84.4902V142.605H77.8027C77.2298 142.605 76.7454 142.802 76.3444 143.188C75.9381 143.563 75.7402 144.052 75.7402 144.646V165.855H66.4069Z" fill="white"/>
<path d="M105.397 165.854C101.897 165.854 98.8185 165.203 96.1675 163.896C93.5112 162.594 91.4487 160.787 89.98 158.479C88.5216 156.162 87.7925 153.479 87.7925 150.438C87.7925 147.063 88.4904 144.177 89.8966 141.771C91.3133 139.354 93.1935 137.495 95.5425 136.188C97.8862 134.886 100.485 134.229 103.334 134.229C106.595 134.229 109.319 134.912 111.501 136.271C113.694 137.636 115.355 139.495 116.48 141.854C117.605 144.203 118.167 146.886 118.167 149.896C118.167 150.412 118.131 151.021 118.063 151.729C118.006 152.427 117.938 152.974 117.855 153.375H97.6258C97.8602 154.433 98.3185 155.323 99.0008 156.042C99.6779 156.766 100.542 157.302 101.584 157.646C102.636 157.979 103.803 158.146 105.084 158.146H114.542V165.854H105.397ZM97.3758 147.542H109.126C109.042 146.907 108.917 146.287 108.751 145.688C108.595 145.078 108.345 144.542 108.001 144.084C107.667 143.615 107.277 143.209 106.834 142.875C106.386 142.532 105.876 142.261 105.292 142.063C104.72 141.854 104.069 141.75 103.334 141.75C102.417 141.75 101.595 141.912 100.876 142.229C100.152 142.552 99.5477 142.99 99.0633 143.542C98.5737 144.084 98.1987 144.709 97.9383 145.417C97.6883 146.115 97.5008 146.823 97.3758 147.542Z" fill="white"/>
<path d="M136.592 166.584C133.868 166.584 131.456 165.881 129.363 164.479C127.279 163.063 125.654 161.162 124.488 158.771C123.321 156.386 122.738 153.683 122.738 150.667C122.738 147.542 123.415 144.745 124.779 142.271C126.154 139.802 128.092 137.844 130.592 136.396C133.102 134.953 136.071 134.229 139.488 134.229C142.946 134.229 145.889 134.948 148.321 136.375C150.748 137.792 152.618 139.74 153.925 142.209C155.227 144.683 155.884 147.448 155.884 150.5V165.854H146.717V160.917H146.488C145.915 162 145.186 162.974 144.3 163.834C143.425 164.698 142.352 165.37 141.092 165.854C139.826 166.339 138.326 166.584 136.592 166.584ZM139.384 158.5C140.785 158.5 142.014 158.157 143.071 157.459C144.139 156.75 144.951 155.782 145.509 154.542C146.076 153.292 146.363 151.907 146.363 150.375C146.363 148.891 146.076 147.542 145.509 146.334C144.951 145.125 144.139 144.177 143.071 143.479C142.014 142.771 140.785 142.417 139.384 142.417C137.925 142.417 136.654 142.771 135.571 143.479C134.488 144.177 133.66 145.125 133.092 146.334C132.535 147.542 132.259 148.891 132.259 150.375C132.259 151.907 132.535 153.292 133.092 154.542C133.66 155.782 134.488 156.75 135.571 157.459C136.654 158.157 137.925 158.5 139.384 158.5Z" fill="white"/>
<path d="M163.419 165.854V147.604C163.419 145.078 164.008 142.802 165.19 140.771C166.367 138.729 168.065 137.136 170.273 135.979C172.482 134.813 175.112 134.229 178.169 134.229C179.695 134.229 181.096 134.407 182.377 134.75C183.669 135.084 184.846 135.542 185.919 136.125C186.987 136.709 187.898 137.407 188.648 138.209H188.773C189.575 137.407 190.508 136.709 191.565 136.125C192.633 135.542 193.82 135.084 195.127 134.75C196.429 134.407 197.846 134.229 199.377 134.229C202.429 134.229 205.065 134.813 207.273 135.979C209.482 137.136 211.19 138.729 212.398 140.771C213.607 142.802 214.211 145.078 214.211 147.604V165.854H204.815V147.896C204.815 146.896 204.554 145.99 204.044 145.167C203.544 144.334 202.867 143.662 202.023 143.146C201.19 142.62 200.232 142.354 199.148 142.354C198.065 142.354 197.086 142.62 196.211 143.146C195.346 143.662 194.674 144.334 194.19 145.167C193.716 145.99 193.482 146.896 193.482 147.896V165.854H184.148V147.896C184.148 146.896 183.888 145.99 183.377 145.167C182.877 144.334 182.195 143.662 181.336 143.146C180.471 142.62 179.502 142.354 178.419 142.354C177.336 142.354 176.357 142.62 175.482 143.146C174.617 143.662 173.945 144.334 173.461 145.167C172.987 145.99 172.752 146.896 172.752 147.896V165.854H163.419Z" fill="white"/>
<path d="M232.47 178.084V166.042C230.22 165.474 228.288 164.558 226.679 163.292C225.064 162.032 223.835 160.49 222.991 158.667C222.158 156.834 221.741 154.855 221.741 152.73V134.938H231.075V152.417C231.075 153.5 231.33 154.511 231.845 155.438C232.372 156.355 233.085 157.084 233.991 157.625C234.892 158.167 235.908 158.438 237.033 158.438C238.2 158.438 239.231 158.167 240.137 157.625C241.038 157.084 241.752 156.355 242.283 155.438C242.809 154.511 243.075 153.5 243.075 152.417V134.938H252.408V152.73C252.408 154.855 251.991 156.823 251.158 158.625C250.335 160.433 249.137 161.98 247.554 163.271C245.97 164.552 244.054 165.453 241.804 165.98V178.084H232.47Z" fill="white"/>
</svg>
